# AST/ASF file generated using VICON BodyLanguage
# -----------------------------------------------
:version 1.10
:name VICON
:units
  mass 1.0
  length 0.45
  angle deg
:documentation
   .ast/.asf automatically generated from VICON data using
   VICON BodyBuilder and BodyLanguage model FoxedUp or BRILLIANT.MOD
:root
   order TX TY TZ RX RY RZ
   axis XYZ
   position 0 0 0  
   orientation 0 -0 0 
:bonedata
  begin
     id 1 
     name lhipjoint
     direction 0.500677 -0.737119 0.453848 
     length 2.34727 
     axis 0 -0 0  XYZ
  end
  begin
     id 2 
     name lfemur
     direction 0.34202 -0.939693 0  
     length 7.53653  
     axis 0 -0 20  XYZ
    dof rx ry rz
    limits (-160.0 20.0)
           (-70.0 70.0)
           (-60.0 70.0)
  end
  begin
     id 3 
     name ltibia
     direction 0.34202 -0.939693 0   
     length 6.85572   
     axis 0 -0 20   XYZ
    dof rx
    limits (-10.0 170.0)
  end
  begin
     id 4 
     name lfoot
     direction 0.155313 -0.426718 0.890949   
     length 2.18324   
     axis -90 -1.13533e-015 20   XYZ
    dof rx rz
    limits (-45.0 90.0)
           (-70.0 20.0)
  end
  begin
     id 5 
     name ltoes
     direction 1.53474e-011 -4.21647e-011 1   
     length 1.06748   
     axis -90 -1.13533e-015 20   XYZ
    dof rx
    limits (-90.0 20.0)
  end
  begin
     id 6 
     name rhipjoint
     direction -0.632471 -0.659587 0.406111   
     length 2.62319  
     axis 0 -0 0  XYZ 
  end
  begin
     id 7 
     name rfemur
     direction -0.34202 -0.939693 0   
     length 7.21735   
     axis 0 -0 -20   XYZ
    dof rx ry rz
    limits (-160.0 20.0)
           (-70.0 70.0)
           (-70.0 60.0)
  end
  begin
     id 8 
     name rtibia
     direction -0.34202 -0.939693 0   
     length 7.02558   
     axis 0 -0 -20   XYZ
    dof rx
    limits (-10.0 170.0)
 end
 begin
     id 9 
     name rfoot
     direction -0.16057 -0.441164 0.882945   
     length 2.10014  
     axis -90 1.13533e-015 -20   XYZ
    dof rx rz
    limits (-45.0 90.0)
           (-20.0 70.0)
  end
  begin
     id 10 
     name rtoes
     direction -1.53553e-011 -4.2192e-011 1   
     length 1.02554   
     axis -90 1.13533e-015 -20   XYZ
    dof rx
    limits (-90.0 20.0)
  end
  begin
     id 11 
     name lowerback
     direction 0.0401429 0.998861 -0.0258085   
     length 1.80848   
     axis 0 -0 0   XYZ
    dof rx ry rz
    limits (-20.0 45.0)
           (-30.0 30.0)
           (-30.0 30.0)
  end
  begin
     id 12 
     name upperback
     direction -0.0130978 0.999914 -0.000352645   
     length 1.8116   
     axis 0 -0 0   XYZ
    dof rx ry rz
    limits (-20.0 45.0)
           (-30.0 30.0)
           (-30.0 30.0)
  end
  begin
     id 13 
     name thorax
     direction -0.0300198 0.999453 0.0138573   
     length 1.81778   
     axis 0 -0 0   XYZ
    dof rx ry rz
    limits (-20.0 45.0)
           (-30.0 30.0)
           (-30.0 30.0)
  end
  begin
     id 14 
     name lowerneck
     direction -0.0401726 0.999191 -0.00173647   
     length 2.10594   
     axis 0 -0 0   XYZ
    dof rx ry rz
    limits (-20.0 45.0)
           (-30.0 30.0)
           (-30.0 30.0)
  end
  begin
     id 15 
     name upperneck
     direction 0.0119835 0.998501 0.0534085   
     length 2.07325   
     axis 0 -0 0   XYZ
    dof rx ry rz
    limits (-20.0 45.0)
           (-30.0 30.0)
           (-30.0 30.0)
  end
  begin
     id 16
     name head
     direction 0.00628309 0.999826 0.0175921  
     length 2.15096  
     axis 0 -0 0   XYZ
    dof rx ry rz
    limits (-20.0 45.0)
           (-30.0 30.0)
           (-30.0 30.0)
  end
  begin
     id 17 
     name lclavicle
     direction 0.895501 0.429681 -0.115981  
     length 4.18092  
     axis 0 -0 0   XYZ
    dof ry rz
    limits (-20.0 10.0)
           (0.0 20.0)
  end
  begin
     id 18 
     name lhumerus
     direction 1 -4.48961e-011 -3.38433e-028   
     length 5.77237   
     axis 180 -30 -90   XYZ
    dof rx ry rz
    limits (-60.0 90.0)
           (-90.0 90.0)
           (-90.0 90.0)
  end
  begin
     id 19
     name lradius
     direction 1 -4.4901e-011 1.11983e-026   
     length 2.91878   
     axis 180 -30 -90   XYZ
    dof rx
    limits (-10.0 170.0)
  end
  begin
     id 20
     name lwrist
     direction 1 -4.48934e-011 1.88176e-026   
     length 1.45939   
     axis -1.23311e-014 90 90   XYZ
    dof ry
    limits (-180.0 0.0)
 end
  begin
     id 21 
     name lhand
     direction 1 -4.4895e-011 3.76352e-026   
     length 1.06566   
     axis -2.40147e-014 90 90   XYZ
    dof rx rz
    limits (-90.0 90.0)
           (-45.0 45.0)
  end
  begin
     id 22 
     name lfingers
     direction 1 -4.49005e-011 7.52705e-026   
     length 0.859162   
     axis -4.80295e-014 90 90   XYZ
    dof rx
    limits (0.0 90.0)
  end
  begin
     id 23
     name lthumb
     direction 0.707107 -6.34885e-011 0.707107   
     length 1.23359   
     axis -90 45 -9.86935e-015   XYZ
    dof rx rz
    limits (-45.0 45.0)
           (-45.0 45.0)
  end
  begin
     id 24 
     name rclavicle
     direction -0.91006 0.40451 -0.0903492   
     length 4.23293  
     axis 0 -0 0   XYZ 
    dof ry rz
    limits (-10.0 20.0)
           (-20.0 0.0)
  end
  begin
     id 25 
     name rhumerus
     direction -1 -4.4897e-011 1.7415e-027  
     length 5.49854   
     axis 180 30 90   XYZ
    dof rx ry rz
    limits (-90.0 60.0)
           (-90.0 90.0)
           (-90.0 90.0)
  end
  begin
     id 26 
     name rradius
     direction -1 -4.48963e-011 1.21259e-026   
     length 3.1186   
     axis 180 30 90   XYZ
    dof rx
    limits (-10.0 170.0)
  end
  begin
     id 27 
     name rwrist
     direction -1 -4.48967e-011 1.88176e-026   
     length 1.5593   
     axis -1.23311e-014 -90 -90   XYZ
    dof ry
    limits (-180.0 0.0)
  end
  begin
     id 28
     name rhand
     direction -1 -4.4895e-011 3.76352e-026   
     length 0.71207   
     axis -2.40147e-014 -90 -90   XYZ
    dof rx rz
    limits (-90.0 90.0)
           (-45.0 45.0)
  end
  begin
     id 29
     name rfingers
     direction -1 -4.49005e-011 7.52705e-026   
     length 0.574089   
     axis -4.80295e-014 -90 -90   XYZ
    dof rx
    limits (0.0 90.0)
  end
  begin
     id 30
     name rthumb
     direction -0.707107 -6.34982e-011 0.707107   
     length 0.824281   
     axis -90 -45 9.86935e-015   XYZ
    dof rx rz
    limits (-45.0 45.0)
           (-45.0 45.0)
  end
:hierarchy
  begin
    root lhipjoint rhipjoint lowerback
    lhipjoint lfemur
    lfemur ltibia
    ltibia lfoot
    lfoot ltoes
    rhipjoint rfemur
    rfemur rtibia
    rtibia rfoot
    rfoot rtoes
    lowerback upperback
    upperback thorax
    thorax lowerneck lclavicle rclavicle
    lowerneck upperneck
    upperneck head
    lclavicle lhumerus
    lhumerus lradius
    lradius lwrist
    lwrist lhand lthumb
    lhand lfingers
    rclavicle rhumerus
    rhumerus rradius
    rradius rwrist
    rwrist rhand rthumb
    rhand rfingers
  end

#!OML:ASF C:\ViconDB\ViconDB\414\Spring2016\042216\male.ASF
:FULLY-SPECIFIED
:DEGREES
164
root -21.7023 17.2504 12.8435 -138.089 82.752 -141.647
lowerback 0.711096 -1.41972 8.59659
upperback 0.587121 -1.82863 0.307302
thorax -0.0498803 -0.888365 -4.48257
lowerneck -4.91148 2.10523 -2.88166
upperneck -7.13826 3.15429 1.60876
head -1.46788 1.69511 0.982953
rclavicle 1.25483e-014 4.42296e-015
rhumerus -15.0697 9.07733 -94.2293
rradius 34.8713
rwrist 23.3152
rhand 9.93131 -19.3224
rfingers 7.12502
rthumb 35.0612 -45.8642
lclavicle 1.25483e-014 4.42296e-015
lhumerus -40.0994 27.8685 75.0199
lradius 28.7812
lwrist -21.3839
lhand -5.60597 13.1679
lfingers 7.12502
lthumb 20.2111 42.1365
rfemur 1.60873 -1.24742 27.8658
rtibia 10.1555
rfoot -16.5524 -0.0220398
rtoes -10.1934
lfemur -31.1025 -1.85511 -13.6776
ltibia 36.3069
lfoot -21.4613 14.1106
ltoes -8.76424
165
root -21.5199 17.2538 12.8245 -136.815 82.9572 -140.515
lowerback 0.528159 -1.37765 8.61553
upperback 0.564491 -1.79102 0.268597
thorax 0.0330491 -0.867246 -4.53856
lowerneck -4.85441 2.13502 -2.93343
upperneck -7.4866 3.20052 1.48862
head -1.58833 1.72625 0.951915
rclavicle 1.28899e-014 4.96962e-017
rhumerus -14.804 9.94504 -94.4428
rradius 35.6073
rwrist 22.7319
rhand 10.1807 -19.2767
rfingers 7.12502
rthumb 35.2977 -45.7627
lclavicle 1.28899e-014 4.96962e-017
lhumerus -40.5174 28.1565 74.6838
lradius 28.7696
lwrist -21.2275
lhand -5.68662 13.3961
lfingers 7.12502
lthumb 20.1336 42.3728
rfemur 3.76079 -0.966467 27.7846
rtibia 6.81659
rfoot -15.3306 0.20579
rtoes -10.0323
lfemur -31.4895 -2.71914 -13.2624
ltibia 33.2673
lfoot -21.2905 13.9786
ltoes -8.27231
166
root -21.3385 17.2517 12.804 -134.565 83.0647 -138.432
lowerback 0.305113 -1.29263 8.7865
upperback 0.55292 -1.69951 0.274541
thorax 0.154973 -0.816204 -4.63488
lowerneck -4.86396 2.14224 -2.92644
upperneck -7.72568 3.2076 1.26149
head -1.65843 1.73719 0.878169
rclavicle 2.27919e-014 -1.66979e-014
rhumerus -14.587 10.6765 -94.5856
rradius 36.335
rwrist 22.0762
rhand 11.0364 -18.9414
rfingers 7.12502
rthumb 36.1086 -45.2311
lclavicle 2.27919e-014 -1.66979e-014
lhumerus -40.8795 28.4223 74.3998
lradius 28.7438
lwrist -21.2985
lhand -5.58419 13.3321
lfingers 7.12502
lthumb 20.232 42.2984
rfemur 7.56498 -0.673065 27.8769
rtibia 4.13472e-014
rfoot -12.269 0.377139
rtoes -10.0123
lfemur -32.0047 -3.34036 -12.8282
ltibia 30.594
lfoot -20.8064 14.1092
ltoes -8.07075
167
root -21.1502 17.2435 12.7793 -130.84 83.1805 -134.763
lowerback 0.142603 -1.18316 9.08234
upperback 0.539776 -1.56974 0.260022
thorax 0.243738 -0.74683 -4.82081
lowerneck -4.76055 2.18289 -2.73621
upperneck -7.96557 3.24407 0.977673
head -1.74387 1.75769 0.754291
rclavicle -2.62147e-015 -1.50082e-014
rhumerus -14.4486 11.1584 -94.9221
rradius 36.9472
rwrist 21.6446
rhand 11.0074 -18.9929
rfingers 7.12502
rthumb 36.0812 -45.2894
lclavicle -2.62147e-015 -1.50082e-014
lhumerus -41.2903 28.8058 73.8579
lradius 28.691
lwrist -21.3039
lhand -5.08494 13.1047
lfingers 7.12502
lthumb 20.7118 42.0195
rfemur 8.16751 -0.248233 28.0716
rtibia 7.95139e-015
rfoot -12.565 0.526092
rtoes -9.58227
lfemur -32.4273 -4.20327 -12.0423
ltibia 28.4253
lfoot -20.5408 14.2492
ltoes -6.94632
168
root -20.9583 17.2319 12.7539 -126.958 83.1819 -130.961
lowerback -0.114175 -1.03065 9.42363
upperback 0.551107 -1.39445 0.323925
thorax 0.420468 -0.648882 -4.95224
lowerneck -4.73993 2.14468 -2.93076
upperneck -8.129 3.20425 0.979983
head -1.80335 1.7463 0.787077
rclavicle 2.0686e-015 1.63003e-014
rhumerus -14.2687 11.412 -94.97
rradius 37.443
rwrist 21.5797
rhand 11.2643 -18.598
rfingers 7.12502
rthumb 36.3245 -44.8342
lclavicle 2.0686e-015 1.63003e-014
lhumerus -41.6549 29.0277 73.6776
lradius 28.6954
lwrist -21.674
lhand -5.25646 13.3644
lfingers 7.12502
lthumb 20.547 42.297
rfemur 8.7262 0.131284 28.3393
rtibia 2.38542e-014
rfoot -13.093 0.500487
rtoes -8.86468
lfemur -33.0094 -4.94195 -11.239
ltibia 26.9205
lfoot -20.5367 14.3881
ltoes -6.49679
169
root -20.772 17.2155 12.7305 -123.929 82.996 -128.194
lowerback -0.458507 -0.987844 9.87827
upperback 0.479657 -1.3741 0.329636
thorax 0.533305 -0.633408 -5.20738
lowerneck -4.70989 2.2378 -2.64521
upperneck -8.22063 3.30052 0.610587
head -1.8261 1.79358 0.621513
rclavicle 2.05742e-014 1.88845e-015
rhumerus -14.2295 11.9662 -95.3795
rradius 38.062
rwrist 20.9249
rhand 11.2374 -18.9158
rfingers 7.12502
rthumb 36.299 -45.1583
lclavicle 2.05742e-014 1.88845e-015
lhumerus -42.0019 29.4148 73.1575
lradius 28.6112
lwrist -22.1334
lhand -5.26106 12.9041
lfingers 7.12502
lthumb 20.5426 41.8372
rfemur 9.11573 0.349256 28.6842
rtibia 6.36111e-015
rfoot -13.531 0.535065
rtoes -8.69417
lfemur -33.9401 -5.02984 -10.6729
ltibia 25.9156
lfoot -20.8022 13.9919
ltoes -7.70567
170
root -20.5777 17.1924 12.7045 -119.925 82.6143 -124.28
lowerback -0.713573 -0.945443 10.5477
upperback 0.452754 -1.3487 0.465665
thorax 0.64195 -0.611146 -5.4447
lowerneck -4.56374 2.26731 -2.86246
upperneck -8.43728 3.34837 0.646512
head -1.92776 1.82596 0.666299
rclavicle 6.8208e-015 -1.16289e-014
rhumerus -14.1775 12.5373 -95.6048
rradius 38.5882
rwrist 20.6147
rhand 11.4795 -18.9103
rfingers 7.12502
rthumb 36.5282 -45.0953
lclavicle 6.8208e-015 -1.16289e-014
lhumerus -42.4495 29.7158 72.8785
lradius 28.8085
lwrist -22.094
lhand -5.03953 12.9229
lfingers 7.12502
lthumb 20.7554 41.8329
rfemur 9.69714 0.593071 29.2783
rtibia -1.59028e-015
rfoot -13.9595 0.588991
rtoes -8.93874
lfemur -34.6486 -5.02709 -9.91136
ltibia 25.3546
lfoot -21.6106 13.409
ltoes -8.53972
171
root -20.3842 17.1733 12.6752 -117.771 82.8801 -122.188
lowerback -0.861853 -0.803513 10.5813
upperback 0.40661 -1.17693 0.392045
thorax 0.704765 -0.524381 -5.54228
lowerneck -4.5882 2.26894 -2.76468
upperneck -8.36159 3.32962 0.360971
head -1.89025 1.81736 0.560844
rclavicle 5.09386e-015 -1.88845e-015
rhumerus -14.3289 13.091 -95.7317
rradius 39.1346
rwrist 20.2545
rhand 11.8023 -18.7971
rfingers 7.12502
rthumb 36.8337 -44.9044
lclavicle 5.09386e-015 -1.88845e-015
lhumerus -42.6271 29.6512 72.8231
lradius 28.8065
lwrist -21.8598
lhand -4.98717 13.0591
lfingers 7.12502
lthumb 20.8057 41.9636
rfemur 10.3345 0.97666 29.1579
rtibia -1.43125e-014
rfoot -14.3348 0.423691
rtoes -9.25666
lfemur -35.089 -4.78156 -10.0657
ltibia 25.019
lfoot -22.3658 13.1071
ltoes -9.01947
172
root -20.1945 17.1411 12.6508 -113.062 82.7585 -117.386
lowerback -0.786377 -0.652705 10.9835
upperback 0.399712 -0.968628 0.432872
thorax 0.685958 -0.418675 -5.7222
lowerneck -4.49621 2.29202 -2.63762
upperneck -8.42352 3.34075 0.13063
head -1.91868 1.82373 0.46573
rclavicle 2.99419e-015 8.15017e-015
rhumerus -14.4024 13.4339 -95.9401
rradius 39.5499
rwrist 19.9538
rhand 11.3345 -18.7523
rfingers 7.12502
rthumb 36.3909 -44.9718
lclavicle 2.99419e-015 8.15017e-015
lhumerus -42.7889 29.693 72.6823
lradius 28.8551
lwrist -21.4904
lhand -4.92066 13.2462
lfingers 7.12502
lthumb 20.8696 42.1437
rfemur 11.1285 1.46213 29.5606
rtibia 3.49861e-014
rfoot -14.6627 0.38593
rtoes -8.98303
lfemur -35.2373 -4.5928 -9.57102
ltibia 24.8708
lfoot -22.9051 13.2147
ltoes -8.78943
